<?xml version="1.0" encoding="UTF-8"?>
<svg version="1.1" xmlns="http://www.w3.org/2000/svg" width="200" height="200">
<path d="M0 0 C1.13333519 0.01975136 1.13333519 0.01975136 2.28956604 0.03990173 C3.88237952 0.07222565 5.47508389 0.11039273 7.06762695 0.15405273 C9.49262014 0.21456213 11.91618747 0.23786896 14.34179688 0.25976562 C15.89458612 0.29589098 17.44732577 0.33422963 19 0.375 C19.71892929 0.37734146 20.43785858 0.37968292 21.17857361 0.38209534 C26.88318685 0.59971585 29.07787751 2.4216668 33.06640625 6.15234375 C33.72640625 6.15234375 34.38640625 6.15234375 35.06640625 6.15234375 C34.57140625 3.67734375 34.57140625 3.67734375 34.06640625 1.15234375 C38.35640625 1.15234375 42.64640625 1.15234375 47.06640625 1.15234375 C47.56140625 4.61734375 47.56140625 4.61734375 48.06640625 8.15234375 C47.40640625 8.15234375 46.74640625 8.15234375 46.06640625 8.15234375 C46.56140625 11.12234375 46.56140625 11.12234375 47.06640625 14.15234375 C49.85578837 14.57124593 49.85578837 14.57124593 53.06640625 14.15234375 C55.81682291 11.73567604 55.81682291 11.73567604 58.06640625 9.15234375 C58.72640625 9.15234375 59.38640625 9.15234375 60.06640625 9.15234375 C60.39640625 8.16234375 60.72640625 7.17234375 61.06640625 6.15234375 C65.43913382 1.31932907 68.97766444 0.40089039 75.4296875 0.06640625 C78.60252359 0.1698172 81.18360417 0.82781306 84.06640625 2.15234375 C82.7857814 3.85984355 81.44873068 5.52607971 80.06640625 7.15234375 C79.40640625 7.15234375 78.74640625 7.15234375 78.06640625 7.15234375 C78.06640625 7.81234375 78.06640625 8.47234375 78.06640625 9.15234375 C76.40792448 10.16586039 74.73974664 11.1635517 73.06640625 12.15234375 C72.34453125 12.87421875 71.62265625 13.59609375 70.87890625 14.33984375 C70.28078125 14.93796875 69.68265625 15.53609375 69.06640625 16.15234375 C68.40640625 16.15234375 67.74640625 16.15234375 67.06640625 16.15234375 C66.30117824 19.5069253 66.30117824 19.5069253 66.06640625 23.15234375 C67.19000206 24.94315493 67.19000206 24.94315493 69.06640625 26.15234375 C70.39973958 27.48567708 71.73307292 28.81901042 73.06640625 30.15234375 C74.77480906 28.51821932 76.00093672 27.28328281 77.06640625 25.15234375 C77.72640625 25.15234375 78.38640625 25.15234375 79.06640625 25.15234375 C79.35515625 24.20359375 79.64390625 23.25484375 79.94140625 22.27734375 C81.06640625 19.15234375 81.06640625 19.15234375 83.06640625 17.15234375 C83.39640625 16.49234375 83.72640625 15.83234375 84.06640625 15.15234375 C85.06640625 13.15234375 85.06640625 13.15234375 87.06640625 11.15234375 C88.07359978 9.99188164 89.072967 8.82460207 90.06640625 7.65234375 C95.02482891 1.80140501 95.02482891 1.80140501 99.06640625 1.15234375 C101.66014539 1.08336133 104.22450822 1.05799623 106.81640625 1.08984375 C107.51378906 1.09435547 108.21117187 1.09886719 108.9296875 1.10351562 C110.64196428 1.11524355 112.35419658 1.13317722 114.06640625 1.15234375 C114.06640625 2.47234375 114.06640625 3.79234375 114.06640625 5.15234375 C115.05640625 5.64734375 115.05640625 5.64734375 116.06640625 6.15234375 C117.06640625 8.296875 117.06640625 8.296875 118.06640625 10.96484375 C119.51765276 14.80271049 121.13708594 18.40986816 123.06640625 22.02734375 C124.3107429 24.67155912 125.15818644 27.37425961 126.06640625 30.15234375 C127.04643245 32.82689801 128.05616141 35.48897098 129.06640625 38.15234375 C125.37099039 39.10259354 122.76182211 39.10259354 119.06640625 38.15234375 C118.73640625 38.81234375 118.40640625 39.47234375 118.06640625 40.15234375 C114.88905423 38.03410907 114.45600836 37.32883887 113.06640625 33.96484375 C112.72996094 33.16433594 112.39351562 32.36382812 112.046875 31.5390625 C111.72332031 30.75144531 111.39976562 29.96382812 111.06640625 29.15234375 C110.50548126 27.85999233 109.94315965 26.56824542 109.37890625 25.27734375 C107.06640625 19.77139137 107.06640625 19.77139137 107.06640625 17.15234375 C106.40640625 16.82234375 105.74640625 16.49234375 105.06640625 16.15234375 C104.39973958 14.81901042 103.73307292 13.48567708 103.06640625 12.15234375 C102.07640625 11.65734375 102.07640625 11.65734375 101.06640625 11.15234375 C99.54341102 14.08954883 98.26540323 17.06920865 97.06640625 20.15234375 C96.40640625 20.15234375 95.74640625 20.15234375 95.06640625 20.15234375 C94.77765625 21.10109375 94.48890625 22.04984375 94.19140625 23.02734375 C93.06640625 26.15234375 93.06640625 26.15234375 91.06640625 28.15234375 C88.85073201 30.81115284 87.06678739 33.15155991 85.546875 36.27734375 C82.82250127 39.43504306 82.45219599 39.60315783 78.546875 39.94921875 C76.7825546 39.96512547 75.01769743 39.94838906 73.25390625 39.90234375 C72.37669922 39.92554688 71.49949219 39.94875 70.59570312 39.97265625 C64.8157051 39.92077893 61.59150404 38.75271421 57.3371582 34.82910156 C56.06640625 33.15234375 56.06640625 33.15234375 55.57104492 31.01464844 C55.40451416 30.40008789 55.2379834 29.78552734 55.06640625 29.15234375 C53.58140625 28.65734375 53.58140625 28.65734375 52.06640625 28.15234375 C51.61265625 27.65734375 51.15890625 27.16234375 50.69140625 26.65234375 C48.59721744 24.71924639 46.84489933 24.52781579 44.06640625 24.15234375 C44.25203125 25.01859375 44.43765625 25.88484375 44.62890625 26.77734375 C45.21626678 31.30841067 44.50033605 34.85055434 43.06640625 39.15234375 C34.39973958 39.15234375 25.73307292 39.15234375 17.06640625 39.15234375 C16.73640625 38.16234375 16.40640625 37.17234375 16.06640625 36.15234375 C15.40640625 35.82234375 14.74640625 35.49234375 14.06640625 35.15234375 C12.99742549 33.7289264 11.98299787 32.26402341 11.00390625 30.77734375 C10.47667969 29.98585937 9.94945313 29.194375 9.40625 28.37890625 C8.06640625 26.15234375 8.06640625 26.15234375 7.06640625 23.15234375 C6.40640625 23.15234375 5.74640625 23.15234375 5.06640625 23.15234375 C4.57140625 21.17234375 4.57140625 21.17234375 4.06640625 19.15234375 C4.65808594 18.95898438 5.24976562 18.765625 5.859375 18.56640625 C9.98107075 17.20819656 14.06145865 15.8318379 18.06640625 14.15234375 C18.06640625 13.16234375 18.06640625 12.17234375 18.06640625 11.15234375 C12.12640625 10.82234375 6.18640625 10.49234375 0.06640625 10.15234375 C-0.12695312 11.99441406 -0.3203125 13.83648437 -0.51953125 15.734375 C-0.78212148 18.1445782 -1.04516587 20.55473196 -1.30859375 22.96484375 C-1.49808594 24.78725586 -1.49808594 24.78725586 -1.69140625 26.64648438 C-1.8203125 27.80986328 -1.94921875 28.97324219 -2.08203125 30.171875 C-2.19724121 31.24542236 -2.31245117 32.31896973 -2.43115234 33.42504883 C-2.93359375 36.15234375 -2.93359375 36.15234375 -4.93359375 39.15234375 C-6.81298828 39.49291992 -6.81298828 39.49291992 -9.06640625 39.4453125 C-9.87207031 39.43564453 -10.67773438 39.42597656 -11.5078125 39.41601562 C-12.34957031 39.39087891 -13.19132812 39.36574219 -14.05859375 39.33984375 C-14.90808594 39.32630859 -15.75757813 39.31277344 -16.6328125 39.29882812 C-18.73334212 39.26342594 -20.83354668 39.20961776 -22.93359375 39.15234375 C-23.93359375 36.15234375 -23.93359375 36.15234375 -23.93359375 33.15234375 C-24.92359375 32.65734375 -24.92359375 32.65734375 -25.93359375 32.15234375 C-28.8107064 28.23947054 -29.29502518 24.895996 -29.93359375 20.15234375 C-30.59359375 19.82234375 -31.25359375 19.49234375 -31.93359375 19.15234375 C-31.60359375 18.49234375 -31.27359375 17.83234375 -30.93359375 17.15234375 C-31.59359375 16.82234375 -32.25359375 16.49234375 -32.93359375 16.15234375 C-33.65518799 14.50871241 -34.32710796 12.84183989 -34.93359375 11.15234375 C-35.38734375 11.62671875 -35.84109375 12.10109375 -36.30859375 12.58984375 C-37.93359375 14.15234375 -37.93359375 14.15234375 -39.93359375 15.15234375 C-40.65087153 16.79786337 -41.31684603 18.46656664 -41.93359375 20.15234375 C-42.26359375 20.81234375 -42.59359375 21.47234375 -42.93359375 22.15234375 C-43.59359375 22.15234375 -44.25359375 22.15234375 -44.93359375 22.15234375 C-46.13987383 24.48448523 -47.09906755 26.64876514 -47.93359375 29.15234375 C-48.59359375 29.15234375 -49.25359375 29.15234375 -49.93359375 29.15234375 C-50.16046875 29.87421875 -50.38734375 30.59609375 -50.62109375 31.33984375 C-52.25688711 34.84511524 -53.87518342 36.77358016 -56.93359375 39.15234375 C-60.55859375 39.46484375 -60.55859375 39.46484375 -63.93359375 39.15234375 C-64.92359375 39.15234375 -65.91359375 39.15234375 -66.93359375 39.15234375 C-67.59359375 38.49234375 -68.25359375 37.83234375 -68.93359375 37.15234375 C-68.27359375 36.16234375 -67.61359375 35.17234375 -66.93359375 34.15234375 C-66.62421875 33.49234375 -66.31484375 32.83234375 -65.99609375 32.15234375 C-64.93359375 30.15234375 -64.93359375 30.15234375 -63.37109375 28.65234375 C-61.78099967 27.26179605 -61.78099967 27.26179605 -61.55859375 25.27734375 C-60.61979521 22.08542871 -58.27712536 20.49587536 -55.93359375 18.15234375 C-54.30799637 15.82152398 -52.77591501 13.44986892 -51.265625 11.04296875 C-49.93359375 9.15234375 -49.93359375 9.15234375 -47.93359375 8.15234375 C-47.68609375 7.53359375 -47.43859375 6.91484375 -47.18359375 6.27734375 C-45.34258552 3.14762977 -43.27590445 2.50227015 -39.93359375 1.15234375 C-37.21471615 0.94636817 -34.75717753 0.86286239 -32.05859375 0.96484375 C-31.37023438 0.97837891 -30.681875 0.99191406 -29.97265625 1.00585938 C-28.29262374 1.04086005 -26.61300025 1.09465421 -24.93359375 1.15234375 C-19.93359375 11.0838506 -19.93359375 11.0838506 -19.93359375 15.15234375 C-19.27359375 15.48234375 -18.61359375 15.81234375 -17.93359375 16.15234375 C-17.22978218 18.13957643 -16.56241265 20.14012328 -15.93359375 22.15234375 C-15.60359375 22.48234375 -15.27359375 22.81234375 -14.93359375 23.15234375 C-14.93359375 20.51234375 -14.93359375 17.87234375 -14.93359375 15.15234375 C-14.27359375 15.15234375 -13.61359375 15.15234375 -12.93359375 15.15234375 C-12.93359375 10.86234375 -12.93359375 6.57234375 -12.93359375 2.15234375 C-8.18476746 0.25281323 -4.94302669 -0.11320383 0 0 Z M33.06640625 8.15234375 C34.06640625 10.15234375 34.06640625 10.15234375 34.06640625 10.15234375 Z M32.06640625 13.15234375 C33.06640625 15.15234375 33.06640625 15.15234375 33.06640625 15.15234375 Z M32.06640625 16.15234375 C32.06640625 17.14234375 32.06640625 18.13234375 32.06640625 19.15234375 C31.48890625 19.42046875 30.91140625 19.68859375 30.31640625 19.96484375 C28.03381945 21.16954234 26.09261205 22.5603249 24.06640625 24.15234375 C24.3725903 27.82655241 24.82412409 28.93369888 27.62890625 31.46484375 C28.43328125 32.02171875 29.23765625 32.57859375 30.06640625 33.15234375 C32.32074239 27.59164793 32.66602453 22.07377865 33.06640625 16.15234375 C32.73640625 16.15234375 32.40640625 16.15234375 32.06640625 16.15234375 Z M30.06640625 34.15234375 C31.06640625 36.15234375 31.06640625 36.15234375 31.06640625 36.15234375 Z " fill="#1B1B19" transform="translate(69.93359375,114.84765625)"/>
<path d="M0 0 C4.93771325 -0.11780096 8.23482705 1.16695123 12.7355957 3.06201172 C12.7355957 3.72201172 12.7355957 4.38201172 12.7355957 5.06201172 C13.8184082 5.27857422 13.8184082 5.27857422 14.9230957 5.49951172 C19.87204983 8.24893068 21.59655102 13.43434888 23.77929688 18.46972656 C25.15771576 23.64768301 25.09393403 28.6852344 25.1496582 34.02294922 C25.16902435 35.16865387 25.1883905 36.31435852 25.20834351 37.49478149 C25.26796356 41.14211663 25.31445488 44.78948361 25.3605957 48.43701172 C25.3987916 50.91488981 25.43784427 53.39275486 25.4777832 55.87060547 C25.57365073 61.93429144 25.65874956 67.99805646 25.7355957 74.06201172 C22.30869934 75.20431051 20.12457352 74.97062248 16.5480957 74.62451172 C14.91807617 74.47175781 14.91807617 74.47175781 13.25512695 74.31591797 C12.42368164 74.23212891 11.59223633 74.14833984 10.7355957 74.06201172 C10.71053955 73.40604004 10.6854834 72.75006836 10.65966797 72.07421875 C10.5438631 69.11160989 10.42106684 66.14933141 10.2980957 63.18701172 C10.2587793 62.15447266 10.21946289 61.12193359 10.17895508 60.05810547 C10.13706055 59.07197266 10.09516602 58.08583984 10.05200195 57.06982422 C10.01534424 56.15861816 9.97868652 55.24741211 9.94091797 54.30859375 C9.86982506 52.02717691 9.86982506 52.02717691 8.7355957 50.06201172 C3.77349564 49.96239424 -1.1880097 49.89019392 -6.15087891 49.84228516 C-7.8355525 49.82229286 -9.5201578 49.79508949 -11.20458984 49.76025391 C-24.2847993 49.36213918 -24.2847993 49.36213918 -36.2644043 54.06201172 C-37.64919189 54.76117211 -39.03859001 55.45127299 -40.43237305 56.13232422 C-42.45421321 57.16183818 -44.47260214 58.19768807 -46.48901367 59.23779297 C-49.5498596 60.79354913 -52.41244578 62.11028978 -55.69018555 63.17919922 C-58.41408777 63.77722684 -58.41408777 63.77722684 -59.2644043 66.06201172 C-60.2544043 66.06201172 -61.2444043 66.06201172 -62.2644043 66.06201172 C-62.5944043 66.72201172 -62.9244043 67.38201172 -63.2644043 68.06201172 C-65.12188154 69.15107692 -67.02649455 70.16062271 -68.9519043 71.12451172 C-69.98702148 71.65173828 -71.02213867 72.17896484 -72.08862305 72.72216797 C-78.3505291 75.36402993 -84.4593236 75.18990408 -91.1394043 75.12451172 C-92.01854492 75.12 -92.89768555 75.11548828 -93.8034668 75.11083984 C-95.95714233 75.09913509 -98.11078246 75.08120241 -100.2644043 75.06201172 C-100.2644043 69.5466243 -95.28700083 65.14519294 -91.5690918 61.31591797 C-91.05604492 60.81962891 -90.54299805 60.32333984 -90.0144043 59.81201172 C-87.51451907 57.31212649 -85.99143744 55.10487963 -84.2644043 52.06201172 C-82.61350636 50.21300603 -81.4824271 49.17102312 -79.2644043 48.06201172 C-79.2644043 47.40201172 -79.2644043 46.74201172 -79.2644043 46.06201172 C-78.6044043 46.06201172 -77.9444043 46.06201172 -77.2644043 46.06201172 C-77.2644043 45.40201172 -77.2644043 44.74201172 -77.2644043 44.06201172 C-75.95385806 42.70627424 -74.61691927 41.37588341 -73.2644043 40.06201172 C-72.7900293 39.42263672 -72.3156543 38.78326172 -71.8269043 38.12451172 C-70.30113704 36.11049894 -68.60806458 34.4503587 -66.7956543 32.69873047 C-63.9765558 29.68545937 -61.53613346 26.35098778 -59.03393555 23.07373047 C-58.44999023 22.40986328 -57.86604492 21.74599609 -57.2644043 21.06201172 C-56.6044043 21.06201172 -55.9444043 21.06201172 -55.2644043 21.06201172 C-55.2644043 20.40201172 -55.2644043 19.74201172 -55.2644043 19.06201172 C-54.6044043 19.06201172 -53.9444043 19.06201172 -53.2644043 19.06201172 C-53.0581543 18.34013672 -52.8519043 17.61826172 -52.6394043 16.87451172 C-50.83970545 13.19330954 -48.56711225 11.43996145 -45.2644043 9.06201172 C-42.9519043 8.37451172 -42.9519043 8.37451172 -41.2644043 8.06201172 C-40.9344043 7.40201172 -40.6044043 6.74201172 -40.2644043 6.06201172 C-32.66246344 0.69795259 -25.12445587 0.29252702 -16.0769043 0.24951172 C-14.22935547 0.21180664 -14.22935547 0.21180664 -12.34448242 0.17333984 C-8.22974282 0.09570325 -4.11374994 0.11265687 0 0 Z M-40.2644043 24.06201172 C-42.17336242 26.30420442 -43.6660882 28.57051898 -45.2644043 31.06201172 C-46.25029477 32.07592492 -47.24986598 33.07676454 -48.2644043 34.06201172 C-48.9037793 34.86638672 -49.5431543 35.67076172 -50.2019043 36.49951172 C-52.10250472 38.86086376 -54.12443033 40.92203775 -56.2644043 43.06201172 C-57.28763865 44.37759875 -58.29567397 45.70578927 -59.2644043 47.06201172 C-56.02045826 47.06201172 -54.13245036 46.38248493 -51.1394043 45.18701172 C-50.24995117 44.83896484 -49.36049805 44.49091797 -48.4440918 44.13232422 C-46.11087485 43.25973592 -46.11087485 43.25973592 -45.2644043 41.06201172 C-42.94592556 40.34539102 -40.61120726 39.67959145 -38.2644043 39.06201172 C-37.6044043 38.73201172 -36.9444043 38.40201172 -36.2644043 38.06201172 C-30.30403937 35.47211315 -25.66603418 34.65130284 -19.20581055 34.80419922 C-18.37605209 34.81081573 -17.54629364 34.81743225 -16.69139099 34.82424927 C-14.06949997 34.84745827 -11.4484888 34.89118404 -8.8269043 34.93701172 C-6.18043639 34.97206427 -3.53401244 35.00279485 -0.88743591 35.02835083 C0.75305334 35.04535238 2.39349233 35.06851435 4.03379822 35.09835815 C5.93426845 35.12359445 7.83529982 35.09806033 9.7355957 35.06201172 C10.2305957 34.56701172 10.2305957 34.56701172 10.7355957 34.06201172 C10.69736609 32.30933115 10.57949832 30.55811851 10.4230957 28.81201172 C10.34446289 27.85810547 10.26583008 26.90419922 10.18481445 25.92138672 C9.59216128 21.76114859 9.59216128 21.76114859 7.7355957 18.06201172 C1.80322312 14.85642051 -4.60100744 14.57671151 -11.2019043 14.68701172 C-12.08144775 14.69716309 -12.96099121 14.70731445 -13.8671875 14.71777344 C-24.1634118 14.96421799 -32.29841525 17.26331612 -40.2644043 24.06201172 Z " fill="#1C1C1A" transform="translate(138.264404296875,23.93798828125)"/>
<path d="M0 0 C1.64988318 -0.01654913 3.29969496 -0.04382591 4.94921875 -0.08203125 C7.3318386 -0.13691383 9.71277973 -0.15868945 12.09594727 -0.17333984 C12.82944901 -0.19600922 13.56295074 -0.21867859 14.31867981 -0.24203491 C18.23542937 -0.2259476 19.99624709 0.21500467 23.12402344 2.64453125 C25.59603162 5.91320977 25.9322491 8.30551003 26.17016602 12.35009766 C25.51016602 12.35009766 24.85016602 12.35009766 24.17016602 12.35009766 C23.84016602 13.67009766 23.51016602 14.99009766 23.17016602 16.35009766 C22.51016602 16.35009766 21.85016602 16.35009766 21.17016602 16.35009766 C21.17016602 17.01009766 21.17016602 17.67009766 21.17016602 18.35009766 C19.19016602 19.01009766 17.21016602 19.67009766 15.17016602 20.35009766 C14.83064502 23.5506368 14.83064502 23.5506368 17.48266602 25.85009766 C18.97255808 27.23604377 20.46757697 28.61674196 21.98266602 29.97509766 C23.17016602 31.35009766 23.17016602 31.35009766 23.17016602 34.35009766 C18.4018378 35.28506397 15.4744692 35.69909238 11.17016602 33.35009766 C9.40027921 31.36917507 7.88102382 29.49952764 6.35766602 27.35009766 C5.74761719 26.53025391 5.74761719 26.53025391 5.12524414 25.69384766 C2.17016602 21.64116908 2.17016602 21.64116908 2.17016602 19.35009766 C1.51016602 18.69009766 0.85016602 18.03009766 0.17016602 17.35009766 C9.58018879 14.09041656 9.58018879 14.09041656 14.17016602 13.35009766 C14.86176003 11.50284713 14.86176003 11.50284713 15.17016602 9.35009766 C14.51016602 8.36009766 13.85016602 7.37009766 13.17016602 6.35009766 C11.03677806 6.02711314 11.03677806 6.02711314 8.59985352 6.27587891 C7.70395508 6.33066406 6.80805664 6.38544922 5.88500977 6.44189453 C4.47928711 6.55114258 4.47928711 6.55114258 3.04516602 6.66259766 C2.1002832 6.72382812 1.15540039 6.78505859 0.18188477 6.84814453 C-2.15664585 7.00168442 -4.49325788 7.16955842 -6.82983398 7.35009766 C-7.15983398 9.33009766 -7.48983398 11.31009766 -7.82983398 13.35009766 C-8.48983398 13.35009766 -9.14983398 13.35009766 -9.82983398 13.35009766 C-10.15983398 14.01009766 -10.48983398 14.67009766 -10.82983398 15.35009766 C-11.40733398 15.16447266 -11.98483398 14.97884766 -12.57983398 14.78759766 C-15.05471995 14.30636983 -16.43968875 14.67222033 -18.82983398 15.35009766 C-18.88421005 13.76714984 -18.9227967 12.1836551 -18.95483398 10.60009766 C-18.97803711 9.71837891 -19.00124023 8.83666016 -19.02514648 7.92822266 C-18.81854124 5.20103339 -18.30289239 3.63694358 -16.82983398 1.35009766 C-12.15749778 -0.98607045 -5.19169948 0.03817805 0 0 Z " fill="#1C1C1A" transform="translate(75.829833984375,117.64990234375)"/>
<path d="M0 0 C1.05960938 0.00676758 1.05960938 0.00676758 2.140625 0.01367188 C3.88545275 0.02546125 5.630237 0.04339676 7.375 0.0625 C8.21348804 1.51787568 9.04563934 2.97690373 9.875 4.4375 C10.57109375 5.65566406 10.57109375 5.65566406 11.28125 6.8984375 C12.375 9.0625 12.375 9.0625 12.375 11.0625 C13.035 11.0625 13.695 11.0625 14.375 11.0625 C17.16102464 14.08069336 18.2074936 17.170812 19.375 21.0625 C20.9144069 25.78334781 22.61428894 30.42062538 24.375 35.0625 C20.67958414 36.01274979 18.07041586 36.01274979 14.375 35.0625 C14.045 35.7225 13.715 36.3825 13.375 37.0625 C9.93521882 34.76931254 9.57021785 33.90427166 8.375 30.0625 C8.2615625 29.00804687 8.148125 27.95359375 8.03125 26.8671875 C7.29210246 22.58189165 5.8931456 19.25125474 4 15.375 C3.69578125 14.72466797 3.3915625 14.07433594 3.078125 13.40429688 C1.4628303 10.01839069 -0.23417636 6.95935687 -2.625 4.0625 C-3.223125 4.2275 -3.82125 4.3925 -4.4375 4.5625 C-6.625 5.0625 -6.625 5.0625 -9.625 5.0625 C-9.625 3.7425 -9.625 2.4225 -9.625 1.0625 C-6.55966836 -0.47016582 -3.35745728 -0.04026471 0 0 Z " fill="#1A1A18" transform="translate(174.625,117.9375)"/>
<path d="M0 0 C2.97 0 5.94 0 9 0 C10.04973814 4.19895255 9.72795155 6.79405774 9 11 C11.31 12.32 13.62 13.64 16 15 C16 15.66 16 16.32 16 17 C15.01 17 14.02 17 13 17 C13 17.66 13 18.32 13 19 C11.81857422 19.29003906 11.81857422 19.29003906 10.61328125 19.5859375 C7.6985173 20.79413151 7.6985173 20.79413151 6.85546875 24.0390625 C6.63503906 25.22242188 6.41460937 26.40578125 6.1875 27.625 C5.95417969 28.81351563 5.72085938 30.00203125 5.48046875 31.2265625 C5.32191406 32.14179688 5.16335937 33.05703125 5 34 C2.36 34 -0.28 34 -3 34 C-4.01382963 30.3791799 -4.49897691 26.72188582 -5 23 C-4.01 22.67 -3.02 22.34 -2 22 C-1.93941406 20.74703125 -1.87882812 19.4940625 -1.81640625 18.203125 C-1.73197744 16.55207276 -1.64733061 14.90103165 -1.5625 13.25 C-1.50352539 12.0125 -1.50352539 12.0125 -1.44335938 10.75 C-1.40146484 9.95078125 -1.35957031 9.1515625 -1.31640625 8.328125 C-1.27974854 7.5949707 -1.24309082 6.86181641 -1.20532227 6.10644531 C-1 4 -1 4 0 0 Z " fill="#1C1C1A" transform="translate(106,118)"/>
<path d="M0 0 C0.75555679 0.01316757 1.51111359 0.02633514 2.28956604 0.03990173 C3.88237952 0.07222565 5.47508389 0.11039273 7.06762695 0.15405273 C9.49262014 0.21456213 11.91618747 0.23786896 14.34179688 0.25976562 C15.89458612 0.29589098 17.44732577 0.33422963 19 0.375 C19.71892929 0.37734146 20.43785858 0.37968292 21.17857361 0.38209534 C26.88318685 0.59971585 29.07787751 2.4216668 33.06640625 6.15234375 C33.72640625 6.15234375 34.38640625 6.15234375 35.06640625 6.15234375 C34.57140625 3.67734375 34.57140625 3.67734375 34.06640625 1.15234375 C38.35640625 1.15234375 42.64640625 1.15234375 47.06640625 1.15234375 C47.56140625 4.61734375 47.56140625 4.61734375 48.06640625 8.15234375 C47.40640625 8.15234375 46.74640625 8.15234375 46.06640625 8.15234375 C46.56140625 11.12234375 46.56140625 11.12234375 47.06640625 14.15234375 C49.04640625 14.48234375 51.02640625 14.81234375 53.06640625 15.15234375 C52.40640625 16.14234375 51.74640625 17.13234375 51.06640625 18.15234375 C48.75640625 17.16234375 46.44640625 16.17234375 44.06640625 15.15234375 C44.39640625 11.19234375 44.72640625 7.23234375 45.06640625 3.15234375 C42.09640625 3.15234375 39.12640625 3.15234375 36.06640625 3.15234375 C35.97552734 5.03179687 35.97552734 5.03179687 35.8828125 6.94921875 C35.79838369 8.60027099 35.71373686 10.2513121 35.62890625 11.90234375 C35.58958984 12.72734375 35.55027344 13.55234375 35.50976562 14.40234375 C35.44692383 15.60117188 35.44692383 15.60117188 35.3828125 16.82421875 C35.34615479 17.55737305 35.30949707 18.29052734 35.27172852 19.04589844 C35.0652584 21.1641198 34.63508539 23.10428935 34.06640625 25.15234375 C33.40640625 25.15234375 32.74640625 25.15234375 32.06640625 25.15234375 C32.06640625 23.17234375 32.06640625 21.19234375 32.06640625 19.15234375 C29.75640625 20.80234375 27.44640625 22.45234375 25.06640625 24.15234375 C25.416902 27.39442942 25.62861806 28.76762079 28.12890625 30.96484375 C28.76828125 31.35671875 29.40765625 31.74859375 30.06640625 32.15234375 C30.56140625 30.66734375 30.56140625 30.66734375 31.06640625 29.15234375 C31.72640625 29.48234375 32.38640625 29.81234375 33.06640625 30.15234375 C33.06640625 32.13234375 33.06640625 34.11234375 33.06640625 36.15234375 C35.70640625 36.48234375 38.34640625 36.81234375 41.06640625 37.15234375 C41.11539063 36.38148438 41.164375 35.610625 41.21484375 34.81640625 C41.28960937 33.81351563 41.364375 32.810625 41.44140625 31.77734375 C41.51101562 30.77960938 41.580625 29.781875 41.65234375 28.75390625 C42.06640625 26.15234375 42.06640625 26.15234375 44.06640625 24.15234375 C45.24803997 29.66663447 44.84137102 33.82744944 43.06640625 39.15234375 C39.06640625 39.15234375 35.06640625 39.15234375 31.06640625 39.15234375 C30.05578125 39.19359375 29.04515625 39.23484375 28.00390625 39.27734375 C25.06640625 39.15234375 25.06640625 39.15234375 23.06640625 37.15234375 C25.04640625 37.15234375 27.02640625 37.15234375 29.06640625 37.15234375 C29.06640625 36.16234375 29.06640625 35.17234375 29.06640625 34.15234375 C28.07640625 33.82234375 27.08640625 33.49234375 26.06640625 33.15234375 C24.42578125 31.6640625 24.42578125 31.6640625 22.81640625 29.83984375 C22.275 29.24558594 21.73359375 28.65132812 21.17578125 28.0390625 C20.06640625 26.15234375 20.06640625 26.15234375 20.39453125 23.921875 C20.72710937 23.04595703 20.72710937 23.04595703 21.06640625 22.15234375 C23.04640625 21.82234375 25.02640625 21.49234375 27.06640625 21.15234375 C27.06640625 20.49234375 27.06640625 19.83234375 27.06640625 19.15234375 C27.72640625 19.15234375 28.38640625 19.15234375 29.06640625 19.15234375 C29.39640625 17.83234375 29.72640625 16.51234375 30.06640625 15.15234375 C31.05640625 15.15234375 32.04640625 15.15234375 33.06640625 15.15234375 C32.46778883 12.80063244 31.79716273 10.46640595 31.06640625 8.15234375 C30.40640625 7.82234375 29.74640625 7.49234375 29.06640625 7.15234375 C28.70313232 6.64276123 28.3398584 6.13317871 27.96557617 5.6081543 C24.88704563 3.24830372 21.39894796 3.78683134 17.6796875 3.859375 C16.45417427 3.86574226 16.45417427 3.86574226 15.2039032 3.87223816 C12.59523518 3.88902684 9.98734063 3.92667856 7.37890625 3.96484375 C5.6100372 3.97989038 3.84115604 3.99357883 2.07226562 4.00585938 C-2.26331871 4.03893089 -6.59832511 4.09071385 -10.93359375 4.15234375 C-10.93359375 4.81234375 -10.93359375 5.47234375 -10.93359375 6.15234375 C-11.59359375 5.82234375 -12.25359375 5.49234375 -12.93359375 5.15234375 C-12.93359375 4.16234375 -12.93359375 3.17234375 -12.93359375 2.15234375 C-8.61974757 0.02038201 -4.71296849 -0.1079351 0 0 Z M33.06640625 8.15234375 C34.06640625 10.15234375 34.06640625 10.15234375 34.06640625 10.15234375 Z M30.06640625 34.15234375 C31.06640625 36.15234375 31.06640625 36.15234375 31.06640625 36.15234375 Z " fill="#090908" transform="translate(69.93359375,114.84765625)"/>
<path d="M0 0 C4.95 0 9.9 0 15 0 C17 6 17 6 17 7 C17.33 7.99 17.66 8.98 18 10 C14.62294375 9.46274105 11.303314 8.88935377 8 8 C8 7.34 8 6.68 8 6 C2.70499087 7.36157378 0.76254467 10.60343955 -2 15 C-3.65 14.67 -5.3 14.34 -7 14 C-8.35384615 7.6 -8.35384615 7.6 -6.5625 4.5625 C-6.046875 4.046875 -5.53125 3.53125 -5 3 C-3.35 3.33 -1.7 3.66 0 4 C-0.33 3.67 -0.66 3.34 -1 3 C-0.67 2.01 -0.34 1.02 0 0 Z " fill="#1D1D1B" transform="translate(29,118)"/>
<path d="M0 0 C1.21346603 0.00280975 1.21346603 0.00280975 2.45144653 0.00567627 C4.14736096 0.01235802 5.843261 0.02619449 7.5390625 0.046875 C10.14597754 0.07828361 12.7522887 0.08787598 15.359375 0.09375 C17.01042411 0.10291083 18.66146704 0.11328365 20.3125 0.125 C21.48581375 0.13137482 21.48581375 0.13137482 22.68283081 0.13787842 C28.14058602 0.21089852 28.14058602 0.21089852 29.2578125 1.328125 C29.34432861 2.74382623 29.36486154 4.16372 29.35546875 5.58203125 C29.35063477 6.86303711 29.35063477 6.86303711 29.34570312 8.16992188 C29.33313477 9.51666992 29.33313477 9.51666992 29.3203125 10.890625 C29.31580078 11.79232422 29.31128906 12.69402344 29.30664062 13.62304688 C29.29481475 15.85813814 29.2783347 18.09309937 29.2578125 20.328125 C28.9278125 20.328125 28.5978125 20.328125 28.2578125 20.328125 C28.08825455 18.59923945 27.92229736 16.87000057 27.7578125 15.140625 C27.665 14.17769531 27.5721875 13.21476562 27.4765625 12.22265625 C27.2578125 9.328125 27.2578125 9.328125 27.2890625 6.52734375 C27.51367019 4.35165311 27.51367019 4.35165311 26.2578125 3.328125 C23.69671939 3.18972365 21.16460011 3.11495177 18.6015625 3.08984375 C17.82526489 3.081772 17.04896729 3.07370026 16.24914551 3.06538391 C14.59808599 3.05151893 12.94699752 3.04080763 11.29589844 3.03295898 C8.79564838 3.0158834 6.29676875 2.97203942 3.796875 2.92773438 C-4.57246598 2.8444767 -11.4047604 2.85331169 -18.7421875 7.328125 C-20.12707379 8.02708986 -21.51646863 8.71719103 -22.91015625 9.3984375 C-24.93199641 10.42795146 -26.95038534 11.46380136 -28.96679688 12.50390625 C-32.0276428 14.05966241 -34.89022898 15.37640307 -38.16796875 16.4453125 C-40.89187097 17.04334012 -40.89187097 17.04334012 -41.7421875 19.328125 C-42.7321875 19.328125 -43.7221875 19.328125 -44.7421875 19.328125 C-45.0721875 19.988125 -45.4021875 20.648125 -45.7421875 21.328125 C-47.484375 22.43359375 -47.484375 22.43359375 -49.6171875 23.515625 C-50.31585938 23.88042969 -51.01453125 24.24523437 -51.734375 24.62109375 C-53.7421875 25.328125 -53.7421875 25.328125 -56.7421875 24.328125 C-48.85503797 19.74812318 -40.98052673 15.25438584 -32.7421875 11.328125 C-32.09282227 11.01842773 -31.44345703 10.70873047 -30.77441406 10.38964844 C-27.1182175 8.64914824 -23.45827312 6.91655272 -19.79296875 5.1953125 C-19.18106689 4.90769043 -18.56916504 4.62006836 -17.9387207 4.32373047 C-17.21386475 3.99518066 -16.48900879 3.66663086 -15.7421875 3.328125 C-14.68394775 2.80138184 -13.62570801 2.27463867 -12.53540039 1.73193359 C-8.35132394 -0.04414912 -4.49310056 -0.07204004 0 0 Z " fill="#0B0B0A" transform="translate(120.7421875,70.671875)"/>
<path d="M0 0 C0.99 0 1.98 0 3 0 C3 0.66 3 1.32 3 2 C3.721875 2.144375 4.44375 2.28875 5.1875 2.4375 C10.13645413 5.18691896 11.86095532 10.37233716 14.04370117 15.40771484 C15.42212005 20.5856713 15.35833833 25.62322268 15.4140625 30.9609375 C15.43342865 32.10664215 15.4527948 33.2523468 15.4727478 34.43276978 C15.53236785 38.08010491 15.57885918 41.7274719 15.625 45.375 C15.6631959 47.85287809 15.70224857 50.33074314 15.7421875 52.80859375 C15.83805503 58.87227972 15.92315385 64.93604474 16 71 C12.57310364 72.14229879 10.38897782 71.90861076 6.8125 71.5625 C5.72582031 71.46066406 4.63914063 71.35882813 3.51953125 71.25390625 C2.27236328 71.12822266 2.27236328 71.12822266 1 71 C1.33 70.01 1.66 69.02 2 68 C2 68.66 2 69.32 2 70 C3.0725 69.835 4.145 69.67 5.25 69.5 C9 69 9 69 13 69 C12.91621094 67.906875 12.83242187 66.81375 12.74609375 65.6875 C12.10194794 56.25314573 12.06629306 47.06744368 12.625 37.625 C13.23927806 26.3160519 13.04904137 15.46585555 6 6 C4.04148656 4.60644236 2.04872887 3.25717453 0 2 C0 1.34 0 0.68 0 0 Z " fill="#0A0A0A" transform="translate(148,27)"/>
<path d="M0 0 C1.34061543 0.30271961 2.67405895 0.63837971 4 1 C4.66 1 5.32 1 6 1 C7.32 1 8.64 1 10 1 C10 2.32 10 3.64 10 5 C10.33 4.01 10.66 3.02 11 2 C14.22143276 -0.14762184 15.2595467 -0.561068 19 0 C20.9375 1.625 20.9375 1.625 22 4 C21.1875 7.25 21.1875 7.25 20 10 C18.02 10.33 16.04 10.66 14 11 C12.68 9.35 11.36 7.7 10 6 C9.67 7.32 9.34 8.64 9 10 C8.4225 9.62875 7.845 9.2575 7.25 8.875 C5 7.70833333 5 7.70833333 2.75 8.875 C1.88375 9.431875 1.88375 9.431875 1 10 C-0.85064319 6.87703962 -1.29356154 4.62059232 -1 1 C-0.67 0.67 -0.34 0.34 0 0 Z M15 3 C15.66 4.32 16.32 5.64 17 7 C17.66 6.01 18.32 5.02 19 4 C17.68 3.67 16.36 3.34 15 3 Z " fill="#090908" transform="translate(80,164)"/>
<path d="M0 0 C0.66 0.66 1.32 1.32 2 2 C1.34 2.66 0.68 3.32 0 4 C0.33 4.66 0.66 5.32 1 6 C0.34 6 -0.32 6 -1 6 C-0.60296875 6.71800781 -0.2059375 7.43601563 0.203125 8.17578125 C1 11 1 11 -0.265625 13.60546875 C-0.92046875 14.45753906 -1.5753125 15.30960938 -2.25 16.1875 C-2.89453125 17.04730469 -3.5390625 17.90710938 -4.203125 18.79296875 C-6.89050766 22.09377571 -9.99145101 24.99145101 -13 28 C-13.99 27.67 -14.98 27.34 -16 27 C-15.34 25.35 -14.68 23.7 -14 22 C-12.68 22.66 -11.36 23.32 -10 24 C-9.82057837 20.05272412 -9.90649311 17.4019487 -12 14 C-11.236875 12.948125 -10.47375 11.89625 -9.6875 10.8125 C-8.11793464 8.63450762 -6.74516954 6.54130516 -5.4375 4.1875 C-3.85091981 1.77313884 -2.66749314 1.01180774 0 0 Z " fill="#1D1D1B" transform="translate(163,124)"/>
<path d="M0 0 C2.39223697 2.39223697 2.6758631 3.67759676 3 7 C0.4133571 10.87996435 -1.15047436 10.76627413 -5.625 11.6875 C-7.40777344 12.06455078 -7.40777344 12.06455078 -9.2265625 12.44921875 C-10.14179687 12.63097656 -11.05703125 12.81273437 -12 13 C-9.8345823 16.69672554 -7.52896367 20.24676946 -5.0625 23.75 C-4.39347656 24.71421875 -3.72445312 25.6784375 -3.03515625 26.671875 C-0.95327502 29.05345122 -0.0853042 29.69630115 3 30 C3 30.66 3 31.32 3 32 C1.35 32 -0.3 32 -2 32 C-2.33 31.01 -2.66 30.02 -3 29 C-3.66 28.67 -4.32 28.34 -5 28 C-6.06898076 26.57658265 -7.08340838 25.11167966 -8.0625 23.625 C-8.58972656 22.83351562 -9.11695312 22.04203125 -9.66015625 21.2265625 C-11 19 -11 19 -12 16 C-12.66 16 -13.32 16 -14 16 C-14.33 14.68 -14.66 13.36 -15 12 C-14.40832031 11.80664062 -13.81664063 11.61328125 -13.20703125 11.4140625 C-9.0853355 10.05585281 -5.0049476 8.67949415 -1 7 C-1 6.01 -1 5.02 -1 4 C-6.94 3.67 -12.88 3.34 -19 3 C-19.99 10.59 -20.98 18.18 -22 26 C-22.66 25.67 -23.32 25.34 -24 25 C-22.81444992 4.81444992 -22.81444992 4.81444992 -20 2 C-18.5112814 1.91330568 -17.018555 1.89296506 -15.52734375 1.90234375 C-14.62822266 1.90556641 -13.72910156 1.90878906 -12.80273438 1.91210938 C-11.85720703 1.92048828 -10.91167969 1.92886719 -9.9375 1.9375 C-8.98810547 1.94201172 -8.03871094 1.94652344 -7.06054688 1.95117188 C-4.70696935 1.9629989 -2.35351523 1.97947975 0 2 C0 1.34 0 0.68 0 0 Z " fill="#080808" transform="translate(89,122)"/>
<path d="M0 0 C0.99 0.66 1.98 1.32 3 2 C3 2.66 3 3.32 3 4 C3.763125 4.20625 4.52625 4.4125 5.3125 4.625 C8.87313444 6.44671994 9.64197328 8.3031495 11 12 C10.67 12.99 10.34 13.98 10 15 C0.95890411 15.30136986 0.95890411 15.30136986 -2 13 C-3.8125 10.625 -3.8125 10.625 -5 8 C-4.6875 5.6875 -4.6875 5.6875 -4 4 C-3.34 4 -2.68 4 -2 4 C-2 3.01 -2 2.02 -2 1 C-1.34 0.67 -0.68 0.34 0 0 Z M-3 7 C-2 9 -2 9 -2 9 Z " fill="#1C1C1A" transform="translate(132,137)"/>
<path d="M0 0 C0.495 0.99 0.495 0.99 1 2 C-0.258125 1.67 -1.51625 1.34 -2.8125 1 C-16.30919262 -1.67623434 -30.87835159 -1.53119332 -42.8125 5.75 C-46.92176196 8.65407206 -49.31668212 11.77174152 -52 16 C-52.66 16.66 -53.32 17.32 -54 18 C-55.2065625 19.4540625 -55.2065625 19.4540625 -56.4375 20.9375 C-58.23908084 23.09060881 -60.02680986 25.02680986 -62 27 C-62.66 27.99 -63.32 28.98 -64 30 C-64.66 30 -65.32 30 -66 30 C-64.51131293 25.39860359 -62.25370145 22.49772906 -59 19 C-58.34 19 -57.68 19 -57 19 C-56.938125 18.236875 -56.87625 17.47375 -56.8125 16.6875 C-55.71924564 13.07135097 -54.23290206 12.89757295 -51 11 C-49.93251786 9.72958506 -48.89357835 8.43495052 -47.875 7.125 C-42.27364863 0.57693023 -34.96215245 -2.10842403 -26.484375 -2.8125 C-24.24037258 -2.89880779 -21.99532477 -2.96110869 -19.75 -3 C-18.05230469 -3.07541016 -18.05230469 -3.07541016 -16.3203125 -3.15234375 C-10.09465483 -3.33459368 -5.4271069 -3.18880857 0 0 Z " fill="#0A0A09" transform="translate(145,40)"/>
<path d="M0 0 C2.95817972 2.44371368 3.58824483 4.21185245 4 8 C4.11792424 11.00450465 4.21081958 13.99892122 4 17 C1.9455982 19.0544018 -2.41074241 18.16128556 -5.2421875 18.17578125 C-6.9661576 18.19901264 -8.69011592 18.22313123 -10.4140625 18.24804688 C-13.13028445 18.282914 -15.84608336 18.31235552 -18.5625 18.32592773 C-29.70533324 18.39249797 -39.11163375 18.7480572 -49.14013672 24.15356445 C-51.4856545 25.22102444 -52.62268463 24.8490412 -55 24 C-54.34 23.34 -53.68 22.68 -53 22 C-51.68 22 -50.36 22 -49 22 C-48.67 21.34 -48.34 20.68 -48 20 C-45.68060793 19.2863409 -43.34476551 18.6252708 -41 18 C-40.27917236 17.65340332 -39.55834473 17.30680664 -38.81567383 16.94970703 C-34.90486075 15.63061721 -31.29726963 15.75216382 -27.19921875 15.8046875 C-25.9446563 15.80893234 -25.9446563 15.80893234 -24.66474915 15.81326294 C-22.00551774 15.8244168 -19.34662882 15.84951237 -16.6875 15.875 C-14.87956217 15.88503601 -13.07161904 15.89416077 -11.26367188 15.90234375 C-6.84231688 15.92434041 -2.42121642 15.95883706 2 16 C1.85764543 14.27054347 1.71095618 12.54144346 1.5625 10.8125 C1.48128906 9.84957031 1.40007812 8.88664062 1.31640625 7.89453125 C1.02333849 5.21350398 0.57296246 2.6337014 0 0 Z " fill="#090908" transform="translate(146,42)"/>
<path d="M0 0 C0.90105469 0.00902344 1.80210937 0.01804687 2.73046875 0.02734375 C3.41753906 0.03894531 4.10460937 0.05054687 4.8125 0.0625 C3.39393752 3.39685305 1.71318437 5.25815826 -1.0625 7.5625 C-3.34387637 9.48431162 -5.47751192 11.36014382 -7.5625 13.5 C-9.1875 15.0625 -9.1875 15.0625 -11.1875 15.0625 C-11.1875 13.7425 -11.1875 12.4225 -11.1875 11.0625 C-10.5275 11.0625 -9.8675 11.0625 -9.1875 11.0625 C-9.1875 10.4025 -9.1875 9.7425 -9.1875 9.0625 C-9.8475 9.0625 -10.5075 9.0625 -11.1875 9.0625 C-11.1875 8.4025 -11.1875 7.7425 -11.1875 7.0625 C-11.8475 6.7325 -12.5075 6.4025 -13.1875 6.0625 C-8.77664445 1.41321983 -6.38358264 -0.08290367 0 0 Z " fill="#1C1C1B" transform="translate(144.1875,117.9375)"/>
<path d="M0 0 C1 2 1 2 0.875 3.8125 C-0.37664187 6.94160468 -2.55301274 8.74124253 -5 11 C-4.649375 11.9075 -4.29875 12.815 -3.9375 13.75 C-3.03531221 16.87758436 -2.86618493 18.05208081 -4 21 C-5.32 20.67 -6.64 20.34 -8 20 C-8.99 22.475 -8.99 22.475 -10 25 C-12.31 24.67 -14.62 24.34 -17 24 C-16.01 22.515 -16.01 22.515 -15 21 C-15 20.01 -15 19.02 -15 18 C-14.01 17.67 -13.02 17.34 -12 17 C-10.79117904 14.99983534 -10.79117904 14.99983534 -10 13 C-9.34 13 -8.68 13 -8 13 C-7.71125 12.05125 -7.4225 11.1025 -7.125 10.125 C-6 7 -6 7 -4 5 C-3.505 3.9790625 -3.505 3.9790625 -3 2.9375 C-2 1 -2 1 0 0 Z " fill="#1B1B19" transform="translate(157,127)"/>
<path d="M0 0 C-1.28062485 1.7074998 -2.61767557 3.37373596 -4 5 C-4.66 5 -5.32 5 -6 5 C-6 5.66 -6 6.32 -6 7 C-7.65848177 8.01351664 -9.32665961 9.01120795 -11 10 C-11.721875 10.721875 -12.44375 11.44375 -13.1875 12.1875 C-13.785625 12.785625 -14.38375 13.38375 -15 14 C-15.66 14 -16.32 14 -17 14 C-17.76522801 17.35458155 -17.76522801 17.35458155 -18 21 C-16.70735301 22.96431405 -16.70735301 22.96431405 -15 24 C-15.66 24.33 -16.32 24.66 -17 25 C-19.5625 22.75 -19.5625 22.75 -22 20 C-21.8125 17.6875 -21.8125 17.6875 -21 16 C-20.34 16 -19.68 16 -19 16 C-18.67 15.01 -18.34 14.02 -18 13 C-16.328125 11.3515625 -16.328125 11.3515625 -14.25 9.625 C-11.00331159 6.87465784 -7.96094821 4.05347784 -5 1 C-7.08573846 1.22906954 -9.16863641 1.48409892 -11.25 1.75 C-12.99023438 1.95882812 -12.99023438 1.95882812 -14.765625 2.171875 C-18.3794887 3.09716377 -19.575448 4.26403765 -22 7 C-22.66 7 -23.32 7 -24 7 C-22.70208724 3.10626172 -20.31743254 1.21969331 -17 -1 C-11.31050778 -2.89649741 -5.38640841 -2.61159196 0 0 Z " fill="#060606" transform="translate(154,117)"/>
<path d="M0 0 C0.33 0.99 0.66 1.98 1 3 C-0.58203125 5.55859375 -0.58203125 5.55859375 -2.8125 8.4375 C-5.19670253 11.53907321 -7.40002128 14.41909525 -9 18 C-9.66 18 -10.32 18 -11 18 C-11.33 19.32 -11.66 20.64 -12 22 C-7.95837497 22.42432098 -7.95837497 22.42432098 -4 22 C-1.57577814 19.11490087 -1.57577814 19.11490087 0 16 C0.66 16 1.32 16 2 16 C2.66 14.68 3.32 13.36 4 12 C4.33 12.99 4.66 13.98 5 15 C4.34 15 3.68 15 3 15 C2.773125 15.721875 2.54625 16.44375 2.3125 17.1875 C0.67670664 20.69277149 -0.94158967 22.62123641 -4 25 C-7.625 25.3125 -7.625 25.3125 -11 25 C-11.99 25 -12.98 25 -14 25 C-14.66 24.34 -15.32 23.68 -16 23 C-15.01 21.515 -15.01 21.515 -14 20 C-13.5359375 19.01 -13.5359375 19.01 -13.0625 18 C-12 16 -12 16 -10.4375 14.5 C-8.84740592 13.1094523 -8.84740592 13.1094523 -8.625 11.125 C-7.67780332 7.90453128 -5.39691328 6.28277456 -3 4 C-1.97186389 2.68824014 -0.95915568 1.3630107 0 0 Z " fill="#070706" transform="translate(17,129)"/>
<path d="M0 0 C1.32 0.33 2.64 0.66 4 1 C3.34 1.33 2.68 1.66 2 2 C1.32060826 3.99571323 0.65438441 5.99594773 0 8 C-0.66 8.66 -1.32 9.32 -2 10 C-4.2199909 12.66398908 -5.99649071 14.99268974 -7.50390625 18.1328125 C-10.2840913 21.3263271 -10.67771121 21.44475651 -14.66015625 21.7265625 C-16.46125375 21.72391188 -18.26253674 21.68896458 -20.0625 21.625 C-21.42858398 21.63466797 -21.42858398 21.63466797 -22.82226562 21.64453125 C-29.4411634 21.53722414 -29.4411634 21.53722414 -32.12109375 18.9609375 C-32.41113281 18.31382812 -32.70117188 17.66671875 -33 17 C-32.2575 17.23783203 -32.2575 17.23783203 -31.5 17.48046875 C-28.00863657 18.20601771 -24.55093129 18.26425365 -21 18.3125 C-19.93265625 18.35600586 -19.93265625 18.35600586 -18.84375 18.40039062 C-15.28409819 18.44355804 -13.37490388 18.28410685 -10.5 16.10546875 C-8.8065876 14.15937576 -8.8065876 14.15937576 -9 12 C-8.01 11.67 -7.02 11.34 -6 11 C-4.3228214 8.98437732 -4.3228214 8.98437732 -2.8125 6.5625 C-2.01779297 5.35787109 -2.01779297 5.35787109 -1.20703125 4.12890625 C0.16440464 2.1179102 0.16440464 2.1179102 0 0 Z " fill="#080807" transform="translate(163,133)"/>
<path d="M0 0 C0.66 0.33 1.32 0.66 2 1 C2 2.32 2 3.64 2 5 C2.66 5.66 3.32 6.32 4 7 C3.835 7.598125 3.67 8.19625 3.5 8.8125 C2.83005732 11.74349924 3.74285686 13.33781452 5 16 C3.0625 15.25 3.0625 15.25 1 14 C0.63837971 12.67405895 0.30271961 11.34061543 0 10 C-0.99 9.67 -1.98 9.34 -3 9 C-3.45375 8.505 -3.9075 8.01 -4.375 7.5 C-6.46918881 5.56690264 -8.22150692 5.37547204 -11 5 C-10.67 4.34 -10.34 3.68 -10 3 C-7.68529088 2.27129528 -5.3494053 1.60760482 -3 1 C-2.01 0.67 -1.02 0.34 0 0 Z " fill="#151514" transform="translate(125,134)"/>
<path d="M0 0 C-2.82432304 2.34824126 -4.99341224 3.40547583 -8.5625 4.1875 C-19.92419235 7.44563237 -27.18018726 15.83956017 -34 25 C-34.66 24.34 -35.32 23.68 -36 23 C-34.625 21 -34.625 21 -33 19 C-32.34 19 -31.68 19 -31 19 C-31 18.34 -31 17.68 -31 17 C-30.34 17 -29.68 17 -29 17 C-28.79375 16.278125 -28.5875 15.55625 -28.375 14.8125 C-26.57530116 11.13129782 -24.30270796 9.37794973 -21 7 C-18.6875 6.3125 -18.6875 6.3125 -17 6 C-16.67 5.34 -16.34 4.68 -16 4 C-10.8058967 0.68399055 -6.18602647 -2.11627221 0 0 Z " fill="#090908" transform="translate(114,26)"/>
<path d="M0 0 C0.99 2.64 1.98 5.28 3 8 C0.3125 9.6875 0.3125 9.6875 -3 11 C-5.8125 10 -5.8125 10 -8 8 C-9 5.5 -9 5.5 -9 3 C-6.81596628 -0.72570458 -3.98864065 -0.26590938 0 0 Z M-5 3 C-4.67 3.66 -4.34 4.32 -4 5 C-3.34 4.34 -2.68 3.68 -2 3 C-2.99 3 -3.98 3 -5 3 Z " fill="#080808" transform="translate(133,164)"/>
<path d="M0 0 C-0.185625 0.5775 -0.37125 1.155 -0.5625 1.75 C-1.04023546 4.20692525 -0.75729364 5.64397534 0 8 C-0.66 8 -1.32 8 -2 8 C-2.33 8.66 -2.66 9.32 -3 10 C-5.97 9.505 -5.97 9.505 -9 9 C-10.34106208 2.53851907 -10.34106208 2.53851907 -8.8125 0.125 C-5.06275595 -2.20242734 -3.8013481 -2.53423206 0 0 Z M-6 2 C-5.34 3.32 -4.68 4.64 -4 6 C-3.67 4.68 -3.34 3.36 -3 2 C-3.99 2 -4.98 2 -6 2 Z " fill="#080808" transform="translate(78,165)"/>
<path d="M0 0 C0.68835938 0.01353516 1.37671875 0.02707031 2.0859375 0.04101562 C3.76597001 0.0760163 5.4455935 0.12981046 7.125 0.1875 C8.6875 3 8.6875 3 10.125 6.1875 C9.795 7.1775 9.465 8.1675 9.125 9.1875 C8.733125 8.1975 8.34125 7.2075 7.9375 6.1875 C6.94316435 4.4125725 6.94316435 4.4125725 5.125 3.1875 C0.75348019 2.63633187 -3.49057936 2.84536313 -7.875 3.1875 C-8.205 4.5075 -8.535 5.8275 -8.875 7.1875 C-9.865 7.1875 -10.855 7.1875 -11.875 7.1875 C-11.875 6.5275 -11.875 5.8675 -11.875 5.1875 C-12.535 5.1875 -13.195 5.1875 -13.875 5.1875 C-14.535 6.5075 -15.195 7.8275 -15.875 9.1875 C-16.535 8.5275 -17.195 7.8675 -17.875 7.1875 C-17.215 7.1875 -16.555 7.1875 -15.875 7.1875 C-15.66875 6.589375 -15.4625 5.99125 -15.25 5.375 C-11.81445972 -0.09063227 -5.89104982 -0.22262688 0 0 Z " fill="#050504" transform="translate(37.875,115.8125)"/>
<path d="M0 0 C2.31 0.33 4.62 0.66 7 1 C7 3 7 5 7 7 C7.66 7.33 8.32 7.66 9 8 C8.34 8 7.68 8 7 8 C6.67 8.99 6.34 9.98 6 11 C4.02 11 2.04 11 0 11 C-0.144375 9.88625 -0.28875 8.7725 -0.4375 7.625 C-0.78372035 4.17857953 -0.78372035 4.17857953 -2 2 C-1.34 2 -0.68 2 0 2 C0 1.34 0 0.68 0 0 Z " fill="#070707" transform="translate(59,163)"/>
<path d="M0 0 C2.6875 0.4375 2.6875 0.4375 5 3.4375 C5.8353125 4.9225 5.8353125 4.9225 6.6875 6.4375 C6.0275 6.4375 5.3675 6.4375 4.6875 6.4375 C4.3575 7.4275 4.0275 8.4175 3.6875 9.4375 C3.0275 9.4375 2.3675 9.4375 1.6875 9.4375 C1.3575 10.0975 1.0275 10.7575 0.6875 11.4375 C-1.2925 10.1175 -3.2725 8.7975 -5.3125 7.4375 C-3.12767748 0.59172277 -3.12767748 0.59172277 0 0 Z M-0.3125 3.4375 C-0.6425 4.0975 -0.9725 4.7575 -1.3125 5.4375 C-0.9825 6.0975 -0.6525 6.7575 -0.3125 7.4375 C0.3475 7.1075 1.0075 6.7775 1.6875 6.4375 C1.6875 5.4475 1.6875 4.4575 1.6875 3.4375 C1.0275 3.4375 0.3675 3.4375 -0.3125 3.4375 Z " fill="#070707" transform="translate(117.3125,163.5625)"/>
<path d="M0 0 C1.32 0 2.64 0 4 0 C4.33773437 0.84304687 4.67546875 1.68609375 5.0234375 2.5546875 C5.46945313 3.65039062 5.91546875 4.74609375 6.375 5.875 C6.81585938 6.96554688 7.25671875 8.05609375 7.7109375 9.1796875 C8.83051338 12.06329362 8.83051338 12.06329362 11 14 C10.625 16.125 10.625 16.125 10 18 C9.34 17.67 8.68 17.34 8 17 C7.66666667 15 7.33333333 13 7 11 C6.34 10.67 5.68 10.34 5 10 C5.33 9.34 5.66 8.68 6 8 C5.34 7.67 4.68 7.34 4 7 C3.27840576 5.35636866 2.60648579 3.68949614 2 2 C1.54625 2.474375 1.0925 2.94875 0.625 3.4375 C-1 5 -1 5 -3 6 C-3.71727778 7.64551962 -4.38325228 9.31422289 -5 11 C-5.33 11.66 -5.66 12.32 -6 13 C-6.66 13 -7.32 13 -8 13 C-8.66 14.32 -9.32 15.64 -10 17 C-10.33 16.01 -10.66 15.02 -11 14 C-9.5 11.875 -9.5 11.875 -7 9 C-6.1646875 7.84951172 -6.1646875 7.84951172 -5.3125 6.67578125 C-4.714375 5.85464844 -4.11625 5.03351563 -3.5 4.1875 C-2.9328125 3.39730469 -2.365625 2.60710937 -1.78125 1.79296875 C-1.1934375 1.20128906 -0.605625 0.60960938 0 0 Z " fill="#070706" transform="translate(33,124)"/>
<path d="M0 0 C2.82249951 1.03491649 3.83374226 1.69915265 5.3125 4.375 C6.02770914 7.10579853 5.9659657 8.39189261 5 11 C4.2575 10.814375 3.515 10.62875 2.75 10.4375 C0.05009037 10.00796892 -1.44631077 10.14877026 -4 11 C-4.33 10.34 -4.66 9.68 -5 9 C-4.34 9 -3.68 9 -3 9 C-2.87625 8.2575 -2.7525 7.515 -2.625 6.75 C-2.04513299 4.19858515 -1.26291261 2.2732427 0 0 Z " fill="#090909" transform="translate(146,163)"/>
<path d="M0 0 C0 3.62453269 -0.92469613 5.07920195 -3 8 C-3.99 8.33 -4.98 8.66 -6 9 C-6 9.66 -6 10.32 -6 11 C-6.66 11 -7.32 11 -8 11 C-8 11.66 -8 12.32 -8 13 C-0.08 12.67 7.84 12.34 16 12 C15.67 12.66 15.34 13.32 15 14 C9.77801723 15.32635026 4.47313503 15.11485373 -0.875 15.0625 C-1.75414062 15.05798828 -2.63328125 15.05347656 -3.5390625 15.04882812 C-5.69273803 15.03712337 -7.84637817 15.01919069 -10 15 C-10 11.26017042 -8.99699161 10.36893368 -6.6875 7.5 C-6.07261719 6.7265625 -5.45773438 5.953125 -4.82421875 5.15625 C-3.28610046 3.33817442 -1.71641937 1.64776259 0 0 Z " fill="#0A0A0A" transform="translate(48,84)"/>
<path d="M0 0 C0.69738281 0.00451172 1.39476562 0.00902344 2.11328125 0.01367188 C3.82555803 0.0253998 5.53779033 0.04333347 7.25 0.0625 C7.25 1.3825 7.25 2.7025 7.25 4.0625 C7.91 4.3925 8.57 4.7225 9.25 5.0625 C10.4375 7.4375 10.4375 7.4375 11.25 10.0625 C10.92 11.0525 10.59 12.0425 10.25 13.0625 C9.41151196 11.60712432 8.57936066 10.14809627 7.75 8.6875 C7.05390625 7.46933594 7.05390625 7.46933594 6.34375 6.2265625 C5.25 4.0625 5.25 4.0625 5.25 2.0625 C4.7034375 2.2275 4.156875 2.3925 3.59375 2.5625 C0.02880018 3.32302263 -3.46452282 3.07976323 -7.09375 3 C-9.50304585 3.05668931 -11.45413742 3.36940941 -13.75 4.0625 C-11.75 1.0625 -11.75 1.0625 -10.109375 0.37890625 C-6.73895513 -0.07308714 -3.39237839 -0.04168329 0 0 Z " fill="#070706" transform="translate(176.75,115.9375)"/>
<path d="M0 0 C2 2 2 2 2 5 C2.66 5.33 3.32 5.66 4 6 C4.70381157 7.98723268 5.3711811 9.98777953 6 12 C6.33 12.33 6.66 12.66 7 13 C7 10.36 7 7.72 7 5 C7.66 5 8.32 5 9 5 C9.33 3.68 9.66 2.36 10 1 C9.979375 1.94875 9.95875 2.8975 9.9375 3.875 C9.77448174 6.90666283 9.77448174 6.90666283 11 9 C10.06421005 11.35981813 9.06652192 13.69631264 8 16 C7.01 16 6.02 16 5 16 C2.38592128 10.63809899 0.50771472 5.96564796 0 0 Z " fill="#0C0C09" transform="translate(48,125)"/>
<path d="M0 0 C2.97 0 5.94 0 9 0 C9 0.99 9 1.98 9 3 C8.34 3 7.68 3 7 3 C7 4.98 7 6.96 7 9 C5.68 9.33 4.36 9.66 3 10 C1.875 5.25 1.875 5.25 3 3 C2.01 2.67 1.02 2.34 0 2 C0 1.34 0 0.68 0 0 Z " fill="#010101" transform="translate(47,164)"/>
<path d="M0 0 C-2.96921058 1.64956143 -5.60527583 2.66052758 -9 3 C-9.62229492 2.67918457 -10.24458984 2.35836914 -10.88574219 2.02783203 C-13.25123652 0.87786308 -14.71776806 0.76739669 -17.328125 0.8046875 C-18.12734375 0.81113281 -18.9265625 0.81757813 -19.75 0.82421875 C-20.575 0.84097656 -21.4 0.85773437 -22.25 0.875 C-23.51070312 0.88853516 -23.51070312 0.88853516 -24.796875 0.90234375 C-26.86470604 0.92584183 -28.93238995 0.96171092 -31 1 C-31.33 0.34 -31.66 -0.32 -32 -1 C-28.81265063 -1.16963105 -25.62510059 -1.33516251 -22.4375 -1.5 C-21.54224609 -1.54769531 -20.64699219 -1.59539063 -19.72460938 -1.64453125 C-4.95411005 -2.40199275 -4.95411005 -2.40199275 0 0 Z " fill="#090909" transform="translate(148,26)"/>
<path d="M0 0 C1.875 0.0625 1.875 0.0625 4 1 C5.75 4.0625 5.75 4.0625 7 7 C6.01 7 5.02 7 4 7 C3.67 7.99 3.34 8.98 3 10 C1.68 9.34 0.36 8.68 -1 8 C-1.04241723 5.66705225 -1.04092937 3.33297433 -1 1 C-0.67 0.67 -0.34 0.34 0 0 Z " fill="#070706" transform="translate(80,164)"/>
<path d="M0 0 C1.22589844 0.01353516 1.22589844 0.01353516 2.4765625 0.02734375 C3.41628906 0.04474609 3.41628906 0.04474609 4.375 0.0625 C4.705 0.7225 5.035 1.3825 5.375 2.0625 C4.715 2.0625 4.055 2.0625 3.375 2.0625 C3.705 3.0525 4.035 4.0425 4.375 5.0625 C1.375 5.0625 1.375 5.0625 -0.625 4.4375 C-2.9334494 3.76363419 -2.9334494 3.76363419 -5.625 6.0625 C-5.955 4.4125 -6.285 2.7625 -6.625 1.0625 C-4.21954362 -0.14022819 -2.67503047 -0.03821472 0 0 Z " fill="#1E1E1C" transform="translate(171.625,117.9375)"/>
<path d="M0 0 C0.99 0 1.98 0 3 0 C3.0825 0.94875 3.165 1.8975 3.25 2.875 C3.65074923 6.10461791 3.65074923 6.10461791 6.0625 7.375 C6.701875 7.58125 7.34125 7.7875 8 8 C5.64046906 10.35953094 4.22104383 10.49141413 1 11 C1 10.34 1 9.68 1 9 C0.34 8.67 -0.32 8.34 -1 8 C-0.67 5.36 -0.34 2.72 0 0 Z " fill="#090909" transform="translate(104,164)"/>
<path d="M0 0 C0.66 0 1.32 0 2 0 C2 0.99 2 1.98 2 3 C4.4377963 3.05397335 6.87439685 3.09365616 9.3125 3.125 C10.34793945 3.15013672 10.34793945 3.15013672 11.40429688 3.17578125 C15.17135396 3.21217794 16.78431704 3.14378864 20 1 C20 1.99 20 2.98 20 4 C19 5 19 5 17.23413086 5.11352539 C16.48526611 5.10828857 15.73640137 5.10305176 14.96484375 5.09765625 C14.15595703 5.09443359 13.34707031 5.09121094 12.51367188 5.08789062 C11.66353516 5.07951172 10.81339844 5.07113281 9.9375 5.0625 C9.08349609 5.05798828 8.22949219 5.05347656 7.34960938 5.04882812 C5.23304337 5.03700373 3.11651315 5.01906769 1 5 C0.67 3.35 0.34 1.7 0 0 Z " fill="#060605" transform="translate(46,149)"/>
<path d="M0 0 C3.37099841 2.75903254 4.90114805 6.51140789 6.6875 10.375 C7.00783203 11.035 7.32816406 11.695 7.65820312 12.375 C9.37485744 16.04988472 10.41654364 18.92887537 10 23 C6.71562312 19.71562312 5.45096176 15.35288527 4 11 C4 10.34 4 9.68 4 9 C3.34 8.67 2.68 8.34 2 8 C1.33333333 6.66666667 0.66666667 5.33333333 0 4 C-0.66 3.67 -1.32 3.34 -2 3 C-2 2.34 -2 1.68 -2 1 C-1.34 0.67 -0.68 0.34 0 0 Z " fill="#080806" transform="translate(173,123)"/>
<path d="M0 0 C1.30839844 0.01804687 2.61679688 0.03609375 3.96484375 0.0546875 C7.18564689 0.10170652 10.40494474 0.16741819 13.625 0.25 C13.625 0.58 13.625 0.91 13.625 1.25 C12.9043335 1.26458252 12.18366699 1.27916504 11.44116211 1.29418945 C8.14775913 1.36906959 4.85532564 1.46559841 1.5625 1.5625 C0.42876953 1.58505859 -0.70496094 1.60761719 -1.87304688 1.63085938 C-8.17483001 1.83295738 -12.73547702 2.45761483 -18.375 5.25 C-19.035 4.92 -19.695 4.59 -20.375 4.25 C-14.49997913 -1.29741748 -7.66471539 -0.19988225 0 0 Z " fill="#030303" transform="translate(122.375,71.75)"/>
<path d="M0 0 C0.66 0.33 1.32 0.66 2 1 C0.11248318 2.18007431 -1.78539195 3.34359173 -3.6875 4.5 C-4.74324219 5.1496875 -5.79898438 5.799375 -6.88671875 6.46875 C-9.9770971 7.98873534 -11.62703511 8.35043791 -15 8 C-15 7.34 -15 6.68 -15 6 C-14.360625 5.896875 -13.72125 5.79375 -13.0625 5.6875 C-12.381875 5.460625 -11.70125 5.23375 -11 5 C-10.67 4.01 -10.34 3.02 -10 2 C-9.01 2.33 -8.02 2.66 -7 3 C-4.6603447 2.01488198 -2.32671865 1.01529541 0 0 Z " fill="#070707" transform="translate(88,68)"/>
<path d="M0 0 C0.66 0 1.32 0 2 0 C2.66 1.98 3.32 3.96 4 6 C4.99 5.67 5.98 5.34 7 5 C9 5 11 5 13 5 C13.66 4.67 14.32 4.34 15 4 C15.33 4.99 15.66 5.98 16 7 C12.30458414 7.95024979 9.69541586 7.95024979 6 7 C5.67 7.66 5.34 8.32 5 9 C1.13892543 6.42595029 1.05680308 4.38979741 0 0 Z " fill="#080808" transform="translate(183,146)"/>
<path d="M0 0 C1 2 1 2 0.875 3.8125 C-0.37382118 6.93455295 -2.58679853 8.70745861 -5 11 C-5.33 11.66 -5.66 12.32 -6 13 C-6.66 13 -7.32 13 -8 13 C-6.25 7.25 -6.25 7.25 -4 5 C-3.505 3.9790625 -3.505 3.9790625 -3 2.9375 C-2 1 -2 1 0 0 Z " fill="#080807" transform="translate(157,127)"/>
<path d="M0 0 C0.99 0 1.98 0 3 0 C4.125 6.75 4.125 6.75 3 9 C2.01 9 1.02 9 0 9 C0 6.03 0 3.06 0 0 Z " fill="#070707" transform="translate(137,164)"/>
<path d="M0 0 C0.66 0.33 1.32 0.66 2 1 C2 1.99 2 2.98 2 4 C1.01 4.66 0.02 5.32 -1 6 C-1.33 6.99 -1.66 7.98 -2 9 C-5.44444444 12 -5.44444444 12 -8 12 C-8 10 -8 10 -6.1875 8.125 C-5.465625 7.42375 -4.74375 6.7225 -4 6 C-2.43548444 4.02986929 -1.12410116 2.24820232 0 0 Z " fill="#080706" transform="translate(69,58)"/>
<path d="M0 0 C0.99 0.99 1.98 1.98 3 3 C3.66 2.67 4.32 2.34 5 2 C4.67 3.32 4.34 4.64 4 6 C4.66 6.33 5.32 6.66 6 7 C4.02 7.33 2.04 7.66 0 8 C-1.09658936 4.71023192 -0.79953138 3.28696233 0 0 Z " fill="#030302" transform="translate(94,167)"/>
<path d="M0 0 C2.97 0 5.94 0 9 0 C9 0.99 9 1.98 9 3 C8.34 3 7.68 3 7 3 C6.34 3.66 5.68 4.32 5 5 C4.67 4.01 4.34 3.02 4 2 C2.68 2 1.36 2 0 2 C0 1.34 0 0.68 0 0 Z " fill="#090909" transform="translate(47,164)"/>
<path d="M0 0 C2.1875 -0.3125 2.1875 -0.3125 5 0 C7.8125 2.375 7.8125 2.375 10 5 C10 5.66 10 6.32 10 7 C7 6 7 6 5.625 4.5 C3.53081119 2.56690264 1.77849308 2.37547204 -1 2 C-0.67 1.34 -0.34 0.68 0 0 Z " fill="#080806" transform="translate(115,137)"/>
<path d="M0 0 C1.98 0 3.96 0 6 0 C5.67 1.32 5.34 2.64 5 4 C4.01 4 3.02 4 2 4 C2 3.34 2 2.68 2 2 C1.34 2 0.68 2 0 2 C-0.66 3.32 -1.32 4.64 -2 6 C-2.66 5.34 -3.32 4.68 -4 4 C-3.34 4 -2.68 4 -2 4 C-1.34 2.68 -0.68 1.36 0 0 Z " fill="#10100F" transform="translate(24,119)"/>
<path d="M0 0 C0.99 0.33 1.98 0.66 3 1 C4.1875 3.5625 4.1875 3.5625 5 6 C3.02 6 1.04 6 -1 6 C-1.042721 4.33388095 -1.04063832 2.66617115 -1 1 C-0.67 0.67 -0.34 0.34 0 0 Z " fill="#141412" transform="translate(82,165)"/>
<path d="M0 0 C0.66 0.33 1.32 0.66 2 1 C1.265611 2.32129824 0.51183106 3.63183171 -0.25 4.9375 C-0.66765625 5.66839844 -1.0853125 6.39929688 -1.515625 7.15234375 C-3.25593617 9.31857318 -4.29561004 9.63594751 -7 10 C-5.355132 6.33067907 -3.64667862 3.82333931 0 2 C0 1.34 0 0.68 0 0 Z " fill="#050505" transform="translate(59,70)"/>
<path d="M0 0 C0.99 0 1.98 0 3 0 C3 0.66 3 1.32 3 2 C3.66 2.33 4.32 2.66 5 3 C5 3.66 5 4.32 5 5 C3.35 5.33 1.7 5.66 0 6 C-0.66 4.68 -1.32 3.36 -2 2 C-1.34 2 -0.68 2 0 2 C0 1.34 0 0.68 0 0 Z " fill="#121212" transform="translate(60,165)"/>
<path d="M0 0 C0.66 0 1.32 0 2 0 C1.40072174 3.35595828 0.15377564 5.37801226 -2 8 C-3.32 7.67 -4.64 7.34 -6 7 C-5 5 -5 5 -2 4 C-0.79117904 1.99983534 -0.79117904 1.99983534 0 0 Z " fill="#070706" transform="translate(147,140)"/>
<path d="M0 0 C-2.96687001 1.64826111 -5.65626525 2.44271087 -9 3 C-9.33 2.01 -9.66 1.02 -10 0 C-6.30458414 -0.95024979 -3.69541586 -0.95024979 0 0 Z " fill="#101010" transform="translate(148,26)"/>
<path d="M0 0 C1.125 3.75 1.125 3.75 0 6 C-2.0625 6.625 -2.0625 6.625 -4 7 C-4.33 6.34 -4.66 5.68 -5 5 C-3.35 3.35 -1.7 1.7 0 0 Z " fill="#0C0C0A" transform="translate(162,120)"/>
<path d="M0 0 C3 1 3 1 3 1 Z " fill="#000000" transform="translate(146,173)"/>
<path d="M0 0 C2 1 2 1 2 1 Z " fill="#000000" transform="translate(63,174)"/>
<path d="" fill="#000000" transform="translate(0,0)"/>
<path d="" fill="#000000" transform="translate(0,0)"/>
<path d="" fill="#000000" transform="translate(0,0)"/>
<path d="" fill="#000000" transform="translate(0,0)"/>
<path d="" fill="#000000" transform="translate(0,0)"/>
<path d="" fill="#000000" transform="translate(0,0)"/>
<path d="" fill="#000000" transform="translate(0,0)"/>
<path d="" fill="#000000" transform="translate(0,0)"/>
<path d="" fill="#000000" transform="translate(0,0)"/>
<path d="" fill="#000000" transform="translate(0,0)"/>
<path d="" fill="#000000" transform="translate(0,0)"/>
<path d="" fill="#000000" transform="translate(0,0)"/>
<path d="" fill="#000000" transform="translate(0,0)"/>
<path d="" fill="#000000" transform="translate(0,0)"/>
<path d="" fill="#000000" transform="translate(0,0)"/>
<path d="" fill="#000000" transform="translate(0,0)"/>
<path d="" fill="#000000" transform="translate(0,0)"/>
<path d="" fill="#000000" transform="translate(0,0)"/>
<path d="" fill="#000000" transform="translate(0,0)"/>
<path d="" fill="#000000" transform="translate(0,0)"/>
<path d="" fill="#000000" transform="translate(0,0)"/>
<path d="" fill="#000000" transform="translate(0,0)"/>
<path d="" fill="#000000" transform="translate(0,0)"/>
<path d="" fill="#000000" transform="translate(0,0)"/>
<path d="" fill="#000000" transform="translate(0,0)"/>
<path d="" fill="#000000" transform="translate(0,0)"/>
<path d="" fill="#000000" transform="translate(0,0)"/>
<path d="" fill="#000000" transform="translate(0,0)"/>
<path d="" fill="#000000" transform="translate(0,0)"/>
<path d="" fill="#000000" transform="translate(0,0)"/>
<path d="" fill="#000000" transform="translate(0,0)"/>
<path d="" fill="#000000" transform="translate(0,0)"/>
<path d="" fill="#000000" transform="translate(0,0)"/>
<path d="" fill="#000000" transform="translate(0,0)"/>
<path d="" fill="#000000" transform="translate(0,0)"/>
<path d="" fill="#000000" transform="translate(0,0)"/>
<path d="" fill="#000000" transform="translate(0,0)"/>
<path d="" fill="#000000" transform="translate(0,0)"/>
<path d="" fill="#000000" transform="translate(0,0)"/>
<path d="" fill="#000000" transform="translate(0,0)"/>
<path d="" fill="#000000" transform="translate(0,0)"/>
<path d="" fill="#000000" transform="translate(0,0)"/>
<path d="" fill="#000000" transform="translate(0,0)"/>
<path d="" fill="#000000" transform="translate(0,0)"/>
<path d="" fill="#000000" transform="translate(0,0)"/>
<path d="" fill="#000000" transform="translate(0,0)"/>
<path d="" fill="#000000" transform="translate(0,0)"/>
<path d="" fill="#000000" transform="translate(0,0)"/>
<path d="" fill="#000000" transform="translate(0,0)"/>
<path d="" fill="#000000" transform="translate(0,0)"/>
<path d="" fill="#000000" transform="translate(0,0)"/>
<path d="" fill="#000000" transform="translate(0,0)"/>
<path d="" fill="#000000" transform="translate(0,0)"/>
<path d="" fill="#000000" transform="translate(0,0)"/>
<path d="" fill="#000000" transform="translate(0,0)"/>
<path d="" fill="#000000" transform="translate(0,0)"/>
<path d="" fill="#000000" transform="translate(0,0)"/>
<path d="" fill="#000000" transform="translate(0,0)"/>
<path d="" fill="#000000" transform="translate(0,0)"/>
<path d="" fill="#000000" transform="translate(0,0)"/>
<path d="" fill="#000000" transform="translate(0,0)"/>
<path d="" fill="#000000" transform="translate(0,0)"/>
<path d="" fill="#000000" transform="translate(0,0)"/>
<path d="" fill="#000000" transform="translate(0,0)"/>
<path d="" fill="#000000" transform="translate(0,0)"/>
<path d="" fill="#000000" transform="translate(0,0)"/>
<path d="" fill="#000000" transform="translate(0,0)"/>
<path d="" fill="#000000" transform="translate(0,0)"/>
<path d="" fill="#000000" transform="translate(0,0)"/>
<path d="" fill="#000000" transform="translate(0,0)"/>
<path d="" fill="#000000" transform="translate(0,0)"/>
</svg>
